<svg width="370" height="88" viewBox="0 0 370 88" fill="none" xmlns="http://www.w3.org/2000/svg">
<path d="M25.637 72L41 87.363L56.363 72H72.5C77.4635 72 81.5 67.9635 81.5 63V9C81.5 4.0365 77.4635 0 72.5 0H9.5C4.5365 0 0.5 4.0365 0.5 9V63C0.5 67.9635 4.5365 72 9.5 72H25.637ZM9.5 9H72.5V63H52.637L41 74.637L29.363 63H9.5V9Z" fill="#9B9EED"/>
<path d="M32.4236 53.9764C34.5567 53.9718 36.6372 53.3132 38.3844 52.0897C40.1321 50.8662 41.4624 49.1365 42.1961 47.1333L43.2585 44.21L44.8621 49.0269V49.0274C45.6165 51.1977 47.3537 52.8828 49.546 53.5705C51.7383 54.2582 54.1268 53.8674 55.9854 52.5169C57.844 51.1664 58.9538 49.0154 58.9769 46.7177V40.779H53.6978V46.7177C53.6669 47.3252 53.3581 47.8845 52.8609 48.2353C52.3638 48.5855 51.7332 48.6877 51.1509 48.5128C50.5682 48.3374 50.0987 47.9043 49.8769 47.3381L46.1619 36.2258L53.1501 17.0235H47.5281L43.4766 28.169L42.1104 24.0779V24.0774C41.0711 20.9557 38.6035 18.518 35.4699 17.5159C32.3357 16.5143 28.9117 17.069 26.2544 19.0086C23.5967 20.9483 22.0248 24.0405 22.0239 27.3307V43.5765C22.0276 46.3336 23.1245 48.9766 25.0738 50.9265C27.0236 52.8758 29.6667 53.9727 32.4238 53.9764L32.4236 53.9764ZM27.3029 27.3305C27.302 25.7251 28.0684 24.2157 29.3645 23.2684C30.6612 22.3212 32.3321 22.05 33.8616 22.5384C35.3907 23.0272 36.5947 24.2166 37.102 25.7402L40.5731 36.1598L37.2341 45.3251C36.6799 46.8441 35.4408 48.0123 33.8915 48.4758C32.3426 48.9393 30.6658 48.6442 29.3682 47.6795C28.0706 46.7147 27.3047 45.1934 27.3029 43.5765V27.3305Z" fill="#9B9EED"/>
<path d="M109.266 42.1406C109.266 43.5078 108.921 44.6602 108.23 45.5977C107.553 46.5221 106.577 47.2188 105.301 47.6875C104.038 48.1562 102.527 48.3906 100.77 48.3906C99.2721 48.3906 97.9766 48.2734 96.8828 48.0391C95.7891 47.8047 94.832 47.4727 94.0117 47.043V44.0547C94.8841 44.4844 95.9258 44.875 97.1367 45.2266C98.3477 45.5781 99.5846 45.7539 100.848 45.7539C102.697 45.7539 104.038 45.4544 104.871 44.8555C105.704 44.2565 106.121 43.4427 106.121 42.4141C106.121 41.8281 105.952 41.3138 105.613 40.8711C105.288 40.4154 104.734 39.9792 103.953 39.5625C103.172 39.1328 102.091 38.6641 100.711 38.1562C99.3438 37.6354 98.1589 37.1211 97.1562 36.6133C96.1667 36.0924 95.3984 35.4609 94.8516 34.7188C94.3177 33.9766 94.0508 33.013 94.0508 31.8281C94.0508 30.0182 94.7799 28.6315 96.2383 27.668C97.7096 26.6914 99.6367 26.2031 102.02 26.2031C103.309 26.2031 104.513 26.3333 105.633 26.5938C106.766 26.8411 107.82 27.1797 108.797 27.6094L107.703 30.207C106.818 29.8294 105.874 29.5104 104.871 29.25C103.868 28.9896 102.846 28.8594 101.805 28.8594C100.307 28.8594 99.1549 29.1068 98.3477 29.6016C97.5534 30.0964 97.1562 30.7734 97.1562 31.6328C97.1562 32.2969 97.3385 32.8438 97.7031 33.2734C98.0807 33.7031 98.6797 34.1068 99.5 34.4844C100.32 34.862 101.401 35.3047 102.742 35.8125C104.083 36.3073 105.242 36.8216 106.219 37.3555C107.195 37.8763 107.944 38.5143 108.465 39.2695C108.999 40.0117 109.266 40.9688 109.266 42.1406ZM124.539 26.2031C127.208 26.2031 129.337 27.1211 130.926 28.957C132.514 30.793 133.309 33.5534 133.309 37.2383C133.309 39.6732 132.944 41.7174 132.215 43.3711C131.486 45.0247 130.457 46.2747 129.129 47.1211C127.814 47.9674 126.258 48.3906 124.461 48.3906C123.328 48.3906 122.332 48.2409 121.473 47.9414C120.613 47.6419 119.878 47.2383 119.266 46.7305C118.654 46.2227 118.146 45.6693 117.742 45.0703H117.508C117.547 45.5781 117.592 46.1901 117.645 46.9062C117.71 47.6224 117.742 48.2474 117.742 48.7812V57.5703H114.48V26.5938H117.156L117.586 29.7578H117.742C118.159 29.1068 118.667 28.5143 119.266 27.9805C119.865 27.4336 120.594 27.0039 121.453 26.6914C122.326 26.3659 123.354 26.2031 124.539 26.2031ZM123.973 28.9375C122.488 28.9375 121.29 29.224 120.379 29.7969C119.48 30.3698 118.823 31.2292 118.406 32.375C117.99 33.5078 117.768 34.9336 117.742 36.6523V37.2773C117.742 39.0872 117.938 40.6172 118.328 41.8672C118.732 43.1172 119.389 44.0677 120.301 44.7188C121.225 45.3698 122.462 45.6953 124.012 45.6953C125.34 45.6953 126.447 45.3372 127.332 44.6211C128.217 43.9049 128.875 42.9089 129.305 41.6328C129.747 40.3438 129.969 38.8659 129.969 37.1992C129.969 34.6732 129.474 32.668 128.484 31.1836C127.508 29.6862 126.004 28.9375 123.973 28.9375ZM147.215 26.2031C149.038 26.2031 150.6 26.6068 151.902 27.4141C153.204 28.2214 154.201 29.3542 154.891 30.8125C155.581 32.2578 155.926 33.9505 155.926 35.8906V37.9023H141.141C141.18 40.4154 141.805 42.3294 143.016 43.6445C144.227 44.9596 145.932 45.6172 148.133 45.6172C149.487 45.6172 150.685 45.4935 151.727 45.2461C152.768 44.9987 153.849 44.6341 154.969 44.1523V47.0039C153.888 47.4857 152.814 47.8372 151.746 48.0586C150.691 48.2799 149.441 48.3906 147.996 48.3906C145.939 48.3906 144.142 47.974 142.605 47.1406C141.082 46.2943 139.897 45.0573 139.051 43.4297C138.204 41.8021 137.781 39.8099 137.781 37.4531C137.781 35.1484 138.165 33.1562 138.934 31.4766C139.715 29.7839 140.809 28.4818 142.215 27.5703C143.634 26.6589 145.301 26.2031 147.215 26.2031ZM147.176 28.8594C145.444 28.8594 144.064 29.4258 143.035 30.5586C142.007 31.6914 141.395 33.2734 141.199 35.3047H152.527C152.514 34.0286 152.312 32.9089 151.922 31.9453C151.544 30.9688 150.965 30.2135 150.184 29.6797C149.402 29.1328 148.4 28.8594 147.176 28.8594ZM169.441 26.2422C171.993 26.2422 173.888 26.8151 175.125 27.9609C176.362 29.1068 176.98 30.9362 176.98 33.4492V48H174.617L173.992 44.8359H173.836C173.237 45.6172 172.612 46.2747 171.961 46.8086C171.31 47.3294 170.555 47.7266 169.695 48C168.849 48.2604 167.807 48.3906 166.57 48.3906C165.268 48.3906 164.109 48.1628 163.094 47.707C162.091 47.2513 161.297 46.5612 160.711 45.6367C160.138 44.7122 159.852 43.5404 159.852 42.1211C159.852 39.9857 160.698 38.3451 162.391 37.1992C164.083 36.0534 166.661 35.4284 170.125 35.3242L173.816 35.168V33.8594C173.816 32.0104 173.419 30.7148 172.625 29.9727C171.831 29.2305 170.711 28.8594 169.266 28.8594C168.146 28.8594 167.078 29.0221 166.062 29.3477C165.047 29.6732 164.083 30.0573 163.172 30.5L162.176 28.0391C163.139 27.5443 164.246 27.1211 165.496 26.7695C166.746 26.418 168.061 26.2422 169.441 26.2422ZM173.777 37.4531L170.516 37.5898C167.846 37.694 165.965 38.1302 164.871 38.8984C163.777 39.6667 163.23 40.7539 163.23 42.1602C163.23 43.3841 163.602 44.2891 164.344 44.875C165.086 45.4609 166.069 45.7539 167.293 45.7539C169.194 45.7539 170.75 45.2266 171.961 44.1719C173.172 43.1172 173.777 41.5352 173.777 39.4258V37.4531ZM186.883 17.6094V33.3906C186.883 33.9115 186.863 34.5495 186.824 35.3047C186.785 36.0469 186.753 36.7044 186.727 37.2773H186.863C187.137 36.9388 187.534 36.4375 188.055 35.7734C188.589 35.1094 189.038 34.5755 189.402 34.1719L196.512 26.5938H200.32L191.707 35.7344L200.945 48H197.039L189.48 37.8633L186.883 40.2461V48H183.66V17.6094H186.883ZM207.918 26.5938V48H204.676V26.5938H207.918ZM206.336 18.5859C206.87 18.5859 207.326 18.7617 207.703 19.1133C208.094 19.4518 208.289 19.9857 208.289 20.7148C208.289 21.431 208.094 21.9648 207.703 22.3164C207.326 22.668 206.87 22.8438 206.336 22.8438C205.776 22.8438 205.307 22.668 204.93 22.3164C204.565 21.9648 204.383 21.431 204.383 20.7148C204.383 19.9857 204.565 19.4518 204.93 19.1133C205.307 18.7617 205.776 18.5859 206.336 18.5859ZM224.93 26.2031C227.469 26.2031 229.389 26.8281 230.691 28.0781C231.993 29.3151 232.645 31.3073 232.645 34.0547V48H229.441V34.2695C229.441 32.4857 229.031 31.151 228.211 30.2656C227.404 29.3802 226.16 28.9375 224.48 28.9375C222.111 28.9375 220.444 29.6081 219.48 30.9492C218.517 32.2904 218.035 34.237 218.035 36.7891V48H214.793V26.5938H217.41L217.898 29.6797H218.074C218.53 28.9245 219.109 28.293 219.812 27.7852C220.516 27.2643 221.303 26.8737 222.176 26.6133C223.048 26.3398 223.966 26.2031 224.93 26.2031ZM245.301 57.6094C242.488 57.6094 240.32 57.082 238.797 56.0273C237.273 54.9857 236.512 53.5208 236.512 51.6328C236.512 50.2917 236.935 49.1458 237.781 48.1953C238.641 47.2448 239.826 46.6133 241.336 46.3008C240.776 46.0404 240.294 45.6497 239.891 45.1289C239.5 44.6081 239.305 44.0091 239.305 43.332C239.305 42.5508 239.52 41.8672 239.949 41.2812C240.392 40.6823 241.062 40.1094 241.961 39.5625C240.841 39.1068 239.93 38.3385 239.227 37.2578C238.536 36.1641 238.191 34.8945 238.191 33.4492C238.191 31.9128 238.51 30.6042 239.148 29.5234C239.786 28.4297 240.711 27.5964 241.922 27.0234C243.133 26.4505 244.598 26.1641 246.316 26.1641C246.694 26.1641 247.072 26.1836 247.449 26.2227C247.84 26.2487 248.211 26.2943 248.562 26.3594C248.914 26.4115 249.22 26.4766 249.48 26.5547H256.824V28.6445L252.879 29.1328C253.27 29.6406 253.595 30.2526 253.855 30.9688C254.116 31.6849 254.246 32.4792 254.246 33.3516C254.246 35.487 253.523 37.1862 252.078 38.4492C250.633 39.6992 248.647 40.3242 246.121 40.3242C245.522 40.3242 244.91 40.2721 244.285 40.168C243.647 40.5195 243.159 40.9102 242.82 41.3398C242.495 41.7695 242.332 42.2643 242.332 42.8242C242.332 43.2409 242.456 43.5729 242.703 43.8203C242.964 44.0677 243.335 44.25 243.816 44.3672C244.298 44.4714 244.878 44.5234 245.555 44.5234H249.324C251.655 44.5234 253.439 45.0117 254.676 45.9883C255.926 46.9648 256.551 48.3906 256.551 50.2656C256.551 52.6354 255.587 54.4518 253.66 55.7148C251.733 56.9779 248.947 57.6094 245.301 57.6094ZM245.398 55.0703C247.169 55.0703 248.634 54.888 249.793 54.5234C250.965 54.1719 251.837 53.6576 252.41 52.9805C252.996 52.3164 253.289 51.5221 253.289 50.5977C253.289 49.7383 253.094 49.0872 252.703 48.6445C252.312 48.2148 251.74 47.9284 250.984 47.7852C250.229 47.6289 249.305 47.5508 248.211 47.5508H244.5C243.536 47.5508 242.697 47.7005 241.98 48C241.264 48.2995 240.711 48.7422 240.32 49.3281C239.943 49.9141 239.754 50.6432 239.754 51.5156C239.754 52.6745 240.242 53.5534 241.219 54.1523C242.195 54.7643 243.589 55.0703 245.398 55.0703ZM246.238 37.9609C247.788 37.9609 248.953 37.5703 249.734 36.7891C250.516 36.0078 250.906 34.8685 250.906 33.3711C250.906 31.7695 250.509 30.5716 249.715 29.7773C248.921 28.9701 247.749 28.5664 246.199 28.5664C244.715 28.5664 243.569 28.9831 242.762 29.8164C241.967 30.6367 241.57 31.8411 241.57 33.4297C241.57 34.888 241.974 36.0078 242.781 36.7891C243.589 37.5703 244.741 37.9609 246.238 37.9609ZM269.695 25.7148C272.625 25.7148 274.871 26.3529 276.434 27.6289C277.996 28.9049 278.777 30.8451 278.777 33.4492V48H274.617L273.465 45.0312H273.309C272.684 45.8125 272.046 46.4505 271.395 46.9453C270.743 47.4401 269.995 47.8047 269.148 48.0391C268.302 48.2734 267.273 48.3906 266.062 48.3906C264.773 48.3906 263.615 48.1432 262.586 47.6484C261.57 47.1536 260.77 46.3984 260.184 45.3828C259.598 44.3542 259.305 43.0521 259.305 41.4766C259.305 39.1589 260.118 37.4531 261.746 36.3594C263.374 35.2526 265.815 34.6406 269.07 34.5234L272.859 34.4062V33.4492C272.859 32.3034 272.56 31.4635 271.961 30.9297C271.362 30.3958 270.529 30.1289 269.461 30.1289C268.406 30.1289 267.371 30.2786 266.355 30.5781C265.34 30.8776 264.324 31.2552 263.309 31.7109L261.336 27.6875C262.495 27.0755 263.79 26.5938 265.223 26.2422C266.668 25.8906 268.159 25.7148 269.695 25.7148ZM272.859 37.8828L270.555 37.9609C268.628 38.013 267.286 38.3581 266.531 38.9961C265.789 39.6341 265.418 40.474 265.418 41.5156C265.418 42.4271 265.685 43.0781 266.219 43.4688C266.753 43.8464 267.449 44.0352 268.309 44.0352C269.585 44.0352 270.659 43.6576 271.531 42.9023C272.417 42.1471 272.859 41.0729 272.859 39.6797V37.8828ZM290.887 48H284.93V17.6094H290.887V48ZM309.305 25.7539C311.766 25.7539 313.751 26.7109 315.262 28.625C316.785 30.5391 317.547 33.3451 317.547 37.043C317.547 39.5169 317.189 41.6003 316.473 43.293C315.757 44.9727 314.767 46.2422 313.504 47.1016C312.241 47.9609 310.789 48.3906 309.148 48.3906C308.094 48.3906 307.189 48.2604 306.434 48C305.678 47.7266 305.034 47.3815 304.5 46.9648C303.966 46.5352 303.504 46.0794 303.113 45.5977H302.801C302.905 46.1185 302.983 46.6523 303.035 47.1992C303.087 47.7461 303.113 48.2799 303.113 48.8008V57.6094H297.156V26.1641H302L302.84 28.9961H303.113C303.504 28.4102 303.979 27.8698 304.539 27.375C305.099 26.8802 305.77 26.4896 306.551 26.2031C307.345 25.9036 308.263 25.7539 309.305 25.7539ZM307.391 30.5195C306.349 30.5195 305.522 30.7344 304.91 31.1641C304.298 31.5938 303.849 32.2383 303.562 33.0977C303.289 33.957 303.139 35.0443 303.113 36.3594V37.0039C303.113 38.4102 303.243 39.6016 303.504 40.5781C303.777 41.5547 304.227 42.2969 304.852 42.8047C305.49 43.3125 306.362 43.5664 307.469 43.5664C308.38 43.5664 309.129 43.3125 309.715 42.8047C310.301 42.2969 310.737 41.5547 311.023 40.5781C311.323 39.5885 311.473 38.3841 311.473 36.9648C311.473 34.8294 311.141 33.2214 310.477 32.1406C309.812 31.0599 308.784 30.5195 307.391 30.5195ZM328.426 17.6094V23.8008C328.426 24.8815 328.387 25.9102 328.309 26.8867C328.243 27.8633 328.191 28.5534 328.152 28.957H328.465C328.934 28.2018 329.487 27.5898 330.125 27.1211C330.776 26.6523 331.492 26.3073 332.273 26.0859C333.055 25.8646 333.895 25.7539 334.793 25.7539C336.368 25.7539 337.742 26.0339 338.914 26.5938C340.086 27.1406 340.997 28.0065 341.648 29.1914C342.299 30.3633 342.625 31.8867 342.625 33.7617V48H336.668V35.2461C336.668 33.6836 336.382 32.5052 335.809 31.7109C335.236 30.9167 334.35 30.5195 333.152 30.5195C331.954 30.5195 331.01 30.7995 330.32 31.3594C329.63 31.9062 329.142 32.7201 328.855 33.8008C328.569 34.8685 328.426 36.1771 328.426 37.7266V48H322.469V17.6094H328.426ZM357.703 25.7148C360.633 25.7148 362.879 26.3529 364.441 27.6289C366.004 28.9049 366.785 30.8451 366.785 33.4492V48H362.625L361.473 45.0312H361.316C360.691 45.8125 360.053 46.4505 359.402 46.9453C358.751 47.4401 358.003 47.8047 357.156 48.0391C356.31 48.2734 355.281 48.3906 354.07 48.3906C352.781 48.3906 351.622 48.1432 350.594 47.6484C349.578 47.1536 348.777 46.3984 348.191 45.3828C347.605 44.3542 347.312 43.0521 347.312 41.4766C347.312 39.1589 348.126 37.4531 349.754 36.3594C351.382 35.2526 353.823 34.6406 357.078 34.5234L360.867 34.4062V33.4492C360.867 32.3034 360.568 31.4635 359.969 30.9297C359.37 30.3958 358.536 30.1289 357.469 30.1289C356.414 30.1289 355.379 30.2786 354.363 30.5781C353.348 30.8776 352.332 31.2552 351.316 31.7109L349.344 27.6875C350.503 27.0755 351.798 26.5938 353.23 26.2422C354.676 25.8906 356.167 25.7148 357.703 25.7148ZM360.867 37.8828L358.562 37.9609C356.635 38.013 355.294 38.3581 354.539 38.9961C353.797 39.6341 353.426 40.474 353.426 41.5156C353.426 42.4271 353.693 43.0781 354.227 43.4688C354.76 43.8464 355.457 44.0352 356.316 44.0352C357.592 44.0352 358.667 43.6576 359.539 42.9023C360.424 42.1471 360.867 41.0729 360.867 39.6797V37.8828Z" fill="#9B9EED"/>
</svg>
