<svg width="82" height="88" viewBox="0 0 82 88" fill="none" xmlns="http://www.w3.org/2000/svg">
<path d="M25.637 72L41 87.363L56.363 72H72.5C77.4635 72 81.5 67.9635 81.5 63V9C81.5 4.0365 77.4635 0 72.5 0H9.5C4.5365 0 0.5 4.0365 0.5 9V63C0.5 67.9635 4.5365 72 9.5 72H25.637ZM9.5 9H72.5V63H52.637L41 74.637L29.363 63H9.5V9Z" fill="#F1C62D"/>
<path d="M32.4236 53.9764C34.5567 53.9718 36.6372 53.3132 38.3844 52.0897C40.1321 50.8662 41.4624 49.1365 42.1961 47.1333L43.2585 44.21L44.8621 49.0269V49.0274C45.6165 51.1977 47.3537 52.8828 49.546 53.5705C51.7383 54.2582 54.1268 53.8674 55.9854 52.5169C57.844 51.1664 58.9538 49.0154 58.9769 46.7177V40.779H53.6978V46.7177C53.6669 47.3252 53.3581 47.8845 52.8609 48.2352C52.3638 48.5855 51.7332 48.6877 51.1509 48.5128C50.5682 48.3374 50.0987 47.9043 49.8769 47.3381L46.1619 36.2258L53.1501 17.0235H47.5281L43.4766 28.169L42.1104 24.0779V24.0774C41.0711 20.9557 38.6035 18.518 35.4699 17.5159C32.3357 16.5143 28.9117 17.069 26.2544 19.0086C23.5967 20.9483 22.0248 24.0405 22.0239 27.3307V43.5765C22.0276 46.3336 23.1245 48.9766 25.0738 50.9264C27.0236 52.8758 29.6667 53.9727 32.4238 53.9764L32.4236 53.9764ZM27.3029 27.3305C27.302 25.725 28.0684 24.2157 29.3645 23.2684C30.6612 22.3212 32.3321 22.05 33.8616 22.5384C35.3907 23.0272 36.5947 24.2166 37.102 25.7402L40.5731 36.1598L37.2341 45.3251C36.6799 46.8441 35.4408 48.0123 33.8915 48.4758C32.3426 48.9393 30.6658 48.6442 29.3682 47.6795C28.0706 46.7147 27.3047 45.1934 27.3029 43.5765V27.3305Z" fill="#F1C62D"/>
</svg>
